<svg xmlns="http://www.w3.org/2000/svg" viewBox="0 7.960000038146973 199.44000244140625 51.37000274658203" data-asc="0.935546875" width="199.44000244140625" height="51.37000274658203"><defs/><g fill="#000000"><g transform="translate(0, 0)"><path d="M1.56 26.20Q0 26.20 0 24.71Q0 24.02 0.71 22.23Q1.42 20.43 1.93 19.43Q3.10 17.09 4.32 16.19Q6.27 14.75 19.58 13.57Q25.37 13.09 28.00 13.09Q30.64 13.09 31.75 13.16Q32.86 13.23 34.06 13.42Q35.25 13.60 36.45 13.88Q37.65 14.16 38.72 14.58Q41.04 15.48 41.97 16.82Q44.87 21.04 44.87 23.71Q44.87 26.68 40.33 29.54Q38.96 30.42 37.40 31.30Q31.71 34.38 30.74 34.94Q32.79 38.92 38.77 43.16Q39.48 43.65 39.89 43.90Q41.72 44.97 44.21 43.55Q44.90 43.14 45.61 43.14Q46.31 43.14 46.85 43.66Q47.39 44.19 47.39 44.82Q47.39 47.73 43.51 51.07Q40.63 53.56 38.31 53.56Q36.43 53.56 30.13 48.05Q26.56 44.92 24.34 42.46Q22.12 39.99 21.29 38.78Q20.46 37.57 20.46 36.69Q20.46 35.82 20.89 35.13Q21.31 34.45 22.05 33.81Q23.19 32.84 25.32 31.73Q27.44 30.62 28.78 29.61Q30.13 28.61 31.10 27.54Q33.25 25.27 33.25 23.44Q33.25 22.24 32.52 21.44Q31.18 20.00 30.03 20.00Q28.05 20.00 25.20 20.26L22.22 25.54Q16.53 35.86 14.45 44.14Q13.62 47.36 8.18 47.36Q3.69 47.36 2.44 45.26Q2.03 44.56 2.14 43.88Q2.25 43.21 2.78 42.13Q3.32 41.04 4.25 39.40L6.42 35.69L9.08 31.32L12.08 26.61L15.21 21.92Q6.69 23.75 2.78 25.88Q2.20 26.20 1.56 26.20ZM69.46 18.54Q69.46 18.54 69.10 18.84Q68.75 19.14 67.92 19.52Q67.09 19.90 66.06 19.90Q65.04 19.90 64.09 19.56Q63.13 19.21 62.43 18.60Q60.89 17.29 60.89 15.23Q60.89 12.08 66.16 10.55Q67.94 10.01 69.09 10.01Q70.24 10.01 70.81 10.27Q71.39 10.52 71.75 10.94Q72.49 11.77 72.49 12.63Q72.49 13.50 72.28 14.21Q72.07 14.92 71.68 15.67Q71.29 16.43 70.73 17.19Q70.17 17.94 69.46 18.54M63.31 45.42Q63.31 45.42 62.38 45.90Q61.45 46.39 59.69 46.96Q57.93 47.53 56.24 47.53Q54.54 47.53 52.72 46.72Q50.90 45.90 49.49 44.53Q46.34 41.48 46.34 37.74Q46.34 34.30 48.39 30.76Q50.27 27.56 53.17 25.39Q56.08 23.22 58.57 23.22Q62.13 23.22 62.38 25.22Q62.45 25.83 62.45 26.64Q62.45 27.44 62.07 28.48Q61.69 29.52 61.10 30.55Q60.50 31.59 59.78 32.58Q59.06 33.57 58.40 34.38Q57.13 35.91 56.37 36.60Q56.37 37.43 57.62 38.31Q58.79 39.14 59.61 39.14Q60.42 39.14 61.54 38.75Q62.65 38.35 63.83 37.70Q65.01 37.04 66.25 36.18Q67.48 35.33 68.68 34.42L73.14 30.93Q75.81 29.00 77.47 29.00Q78.13 29.00 78.48 29.48Q78.83 29.96 78.83 30.59Q78.83 31.23 78.20 32.34Q77.56 33.45 76.45 34.79Q75.34 36.13 73.85 37.60Q72.36 39.06 70.63 40.48Q68.90 41.89 67.03 43.18Q65.16 44.46 63.31 45.42ZM81.69 40.67Q82.50 40.33 83.94 39.60Q92.75 35.08 93.60 34.62L94.63 34.06Q96.22 33.03 96.09 32.45Q95.83 31.20 94.75 31.43Q93.68 31.67 92.52 32.06Q91.36 32.45 90.06 33.01Q87.35 34.13 85.30 35.25Q78.13 39.38 76.66 40.26Q75.61 42.63 74.78 44.97L71.83 53.32Q70.43 57.20 69.02 58.57Q68.26 59.33 67.33 59.33Q65.04 59.33 63.72 57.73Q62.40 56.13 62.40 53.67Q62.40 51.22 63.04 48.84Q63.67 46.46 64.79 44.02Q67.07 39.09 70.87 34.81Q73.19 28.59 78.59 22.73Q81.88 19.17 84.72 17.70Q86.13 16.97 87.13 16.97Q88.13 16.97 88.65 17.42Q89.16 17.87 89.16 18.54Q89.16 19.21 88.75 20.24Q88.33 21.26 87.62 22.53Q86.91 23.80 85.96 25.24L83.94 28.20Q83.69 28.56 83.69 28.86Q83.69 29.32 84.25 29.32Q84.89 29.32 86.60 28.52L90.50 26.71Q95.63 24.39 100.32 24.39Q102.76 24.39 104.91 26.71Q107.08 29.05 107.08 31.74Q107.08 35.89 103.69 38.13L100.66 40.14Q99.02 41.16 97.29 42.16L93.77 44.09Q87.84 47.17 84.61 47.17Q81.37 47.17 79.91 46.36Q78.44 45.56 78.44 44.09Q78.44 42.11 81.69 40.67ZM114.89 40.67Q115.70 40.33 117.14 39.60Q125.95 35.08 126.81 34.62L127.83 34.06Q129.42 33.03 129.30 32.45Q129.03 31.20 127.95 31.43Q126.88 31.67 125.72 32.06Q124.56 32.45 123.27 33.01Q120.56 34.13 118.51 35.25Q111.33 39.38 109.86 40.26Q108.81 42.63 107.98 44.97L105.03 53.32Q103.64 57.20 102.22 58.57Q101.46 59.33 100.54 59.33Q98.24 59.33 96.92 57.73Q95.61 56.13 95.61 53.67Q95.61 51.22 96.24 48.84Q96.88 46.46 98.00 44.02Q100.27 39.09 104.08 34.81Q106.40 28.59 111.79 22.73Q115.09 19.17 117.92 17.70Q119.34 16.97 120.34 16.97Q121.34 16.97 121.85 17.42Q122.36 17.87 122.36 18.54Q122.36 19.21 121.95 20.24Q121.53 21.26 120.83 22.53Q120.12 23.80 119.17 25.24L117.14 28.20Q116.89 28.56 116.89 28.86Q116.89 29.32 117.46 29.32Q118.09 29.32 119.80 28.52L123.71 26.71Q128.83 24.39 133.52 24.39Q135.96 24.39 138.11 26.71Q140.28 29.05 140.28 31.74Q140.28 35.89 136.89 38.13L133.86 40.14Q132.23 41.16 130.49 42.16L126.98 44.09Q121.04 47.17 117.81 47.17Q114.58 47.17 113.11 46.36Q111.65 45.56 111.65 44.09Q111.65 42.11 114.89 40.67ZM168.43 29.54Q170.00 29.54 170.00 30.83Q170.00 32.42 168.09 34.62Q164.94 38.28 160.67 41.75Q153.71 47.31 148.24 47.31Q144.31 47.31 141.80 43.90Q139.18 40.33 139.18 34.33Q139.18 26.44 146.88 16.89Q151.76 10.82 156.08 8.64Q157.42 7.96 158.14 7.96Q158.86 7.96 159.46 8.19Q160.06 8.42 160.57 8.84Q161.77 9.84 161.77 11.25Q161.77 12.67 160.99 14.61Q160.21 16.55 158.72 18.75Q155.57 23.41 150.20 27.69Q148.80 30.35 148.80 34.08Q148.80 35.77 149.88 37.26Q150.98 38.75 152.29 38.75Q154.10 38.75 159.20 35.01L163.55 31.67Q166.21 29.54 168.43 29.54ZM198.27 28.83Q199.44 28.83 199.44 30.15Q199.44 31.03 198.84 32.36Q198.24 33.69 197.12 34.85Q196.00 36.01 194.54 37.26Q193.09 38.50 191.15 39.87Q189.21 41.24 186.87 42.58Q184.52 43.92 181.88 45.00Q176.05 47.39 170.58 47.39Q166.41 47.39 163.28 45.21Q160.01 42.94 160.01 39.70Q160.01 34.59 165.50 30.00Q170.24 26.05 176.66 23.88Q180.57 22.56 183.28 22.56Q185.47 22.56 186.99 23.63Q188.60 24.80 188.60 26.78Q188.60 29.88 183.69 33.64Q182.91 34.25 182.28 34.67L181.40 35.25Q178.96 36.96 173.97 39.09Q175.51 39.89 176.84 39.89Q178.17 39.89 179.24 39.58Q180.30 39.26 181.64 38.67Q182.98 38.09 184.51 37.27Q186.04 36.45 187.60 35.47Q191.09 33.30 193.65 31.03Q195.00 29.79 197.07 29.05Q197.75 28.83 198.27 28.83M171.34 35.69L172.68 35.01Q173.34 34.67 173.85 34.38Q178.78 31.54 179.47 30.88Q180.15 30.22 180.15 29.97Q180.15 29.71 180.00 29.37Q179.86 29.03 179.61 28.76Q179.03 28.08 178.37 28.08Q177.71 28.08 176.92 28.32Q176.12 28.56 175.32 28.99Q174.51 29.42 173.77 30.02Q173.02 30.62 172.46 31.30Q171.17 32.84 171.17 33.96Q171.17 35.08 171.34 35.69Z"/></g></g></svg>